<?xml version="1.0" encoding="UTF-8"?>
<svg width="36px" height="36px" viewBox="0 0 36 36" version="1.1" xmlns="http://www.w3.org/2000/svg" xmlns:xlink="http://www.w3.org/1999/xlink">
    <defs>
        <linearGradient x1="49.9485067%" y1="145.29882%" x2="49.9485067%" y2="7.65131329%" id="linearGradient-1">
            <stop stop-color="#A66427" offset="0%"></stop>
            <stop stop-color="#E8B24C" offset="100%"></stop>
        </linearGradient>
    </defs>
    <g id="consultancyBadge" stroke="none" stroke-width="1" fill="none" fill-rule="evenodd">
        <circle id="Oval" fill="url(#linearGradient-1)" cx="18" cy="18" r="18"></circle>
        <path d="M3.90478516,13.9966964 L7.67243653,11.6924361 L8.4157463,11.6924361 L8.4157463,14.7585889 L8.4157463,23.8966533 L5.52612958,23.8966533 L5.52612958,14.5913442 L3.90478516,14.5913442 L3.90478516,13.9966964 Z M25.4793511,11.8503894 L25.451477,11.8689722 C28.866479,11.8689722 31.6348851,14.6373783 31.6348851,18.0523803 C31.6348851,21.4673823 28.866479,24.2357884 25.451477,24.2357884 C24.1089103,24.2392568 22.8026458,23.8000254 21.7349282,22.9860989 C22.407412,22.2366878 22.8859439,21.3338575 23.128634,20.3566406 C24.2216681,21.4811223 25.9571591,21.6760652 27.2724265,20.8221013 C28.5876939,19.9681374 29.1158142,18.303499 28.5334075,16.8474822 C27.9510008,15.3914654 26.4205423,14.5502586 24.8791667,14.8389519 C23.3377911,15.1276451 22.2154996,16.4657011 22.1994968,18.0337975 C22.2071671,21.4475738 19.4468865,24.2216845 16.0331145,24.2310756 C12.6193426,24.2404668 9.84384087,21.4815848 9.83272891,18.0678181 C9.82161695,14.6540513 12.5790995,11.8771592 15.9928602,11.8643265 C17.3330577,11.8568934 18.6386788,12.2893804 19.7094091,13.0954333 C19.0404502,13.841939 18.5622496,14.7393622 18.3157032,15.7109545 C17.1995825,14.6121994 15.4629334,14.4543611 14.1670128,15.3338939 C12.8710921,16.2134267 12.3764694,17.8856144 12.985406,19.328592 C13.5943426,20.7715697 15.1374114,21.5838516 16.6716514,21.2690566 C18.2058914,20.9542616 19.3044245,19.5999765 19.295943,18.0337975 C19.2985051,14.6198573 22.0654109,11.8529515 25.4793511,11.8503894 Z" id="100" fill="#FFFFFF" opacity="0.921484375"></path>
    </g>
</svg>