<?xml version="1.0" encoding="UTF-8"?>
<svg width="249px" height="53px" viewBox="0 0 249 53" version="1.1" xmlns="http://www.w3.org/2000/svg" xmlns:xlink="http://www.w3.org/1999/xlink">
    <!-- Generator: Sketch 51.2 (57519) - http://www.bohemiancoding.com/sketch -->
    <title>100Coaches_logo_knockout</title>
    <desc>Created with Sketch.</desc>
    <defs>
        <path d="M46.44,25.62 C39.0913755,25.6255149 33.1355149,31.5813755 33.13,38.93 C33.1482567,42.3012543 30.7836262,45.2163999 27.4811214,45.894007 C24.1786167,46.5716142 20.8571078,44.8231494 19.5463507,41.71709 C18.2355936,38.6110306 19.300286,35.0115889 22.0898001,33.1183641 C24.8793142,31.2251393 28.6175115,31.5648915 31.02,33.93 C31.5506996,31.8386138 32.5800429,29.9068795 34.02,28.3 C31.7152161,26.5649433 28.9048214,25.6340001 26.02,25.65 C18.6717619,25.6776229 12.7361852,31.6549792 12.7601041,39.0032304 C12.784023,46.3514815 18.7583866,52.2900704 26.1066488,52.2698556 C33.454911,52.2496408 39.3965107,46.2782715 39.38,38.93 C39.4144466,35.5546181 41.8302179,32.6744064 45.1480823,32.0529841 C48.4659467,31.4315618 51.7603114,33.2422885 53.0139621,36.3764152 C54.2676127,39.5105418 53.1308153,43.0937334 50.2996568,44.9319203 C47.4684982,46.7701072 43.7327937,46.3504858 41.38,43.93 C40.8576012,46.0334933 39.8275446,47.9768667 38.38,49.59 C40.6782993,51.3420051 43.4900786,52.2874659 46.38,52.28 C53.73091,52.28 59.69,46.32091 59.69,38.97 C59.69,31.61909 53.73091,25.66 46.38,25.66 L46.44,25.62 Z" id="path-1"></path>
    </defs>
    <g id="100Coaches_logo_knockout" stroke="none" stroke-width="1" fill="none" fill-rule="evenodd">
        <polygon id="Shape" fill="#FFFFFF" fill-rule="nonzero" points="27 13.46 27 3.59 23.24 10.13 23.17 10.13 19.4 3.61 19.4 13.46 18.12 13.46 18.12 1.19 19.49 1.19 23.22 7.74 26.93 1.19 28.3 1.19 28.3 13.46"></polygon>
        <path d="M41.41,13.46 L40.2,10.23 L34.72,10.23 L33.52,13.46 L32.18,13.46 L36.83,1.12 L38.13,1.12 L42.79,13.46 L41.41,13.46 Z M37.47,2.82 L35.14,9 L39.78,9 L37.47,2.82 Z" id="Shape" fill="#FFFFFF" fill-rule="nonzero"></path>
        <path d="M53.83,13.46 L50.75,8.69 C50.4405032,8.66502007 50.1294968,8.66502007 49.82,8.69 L48,8.69 L48,13.46 L46.67,13.46 L46.67,1.19 L50.84,1.19 C53.38,1.19 55,2.59 55,4.85 C55.0491621,6.57981793 53.8162897,8.08144788 52.11,8.37 L55.37,13.42 L53.83,13.46 Z M53.71,4.91 C53.71,3.28 52.59,2.4 50.77,2.4 L48,2.4 L48,7.52 L50.79,7.52 C52.52,7.52 53.73,6.57 53.73,4.94 L53.71,4.91 Z" id="Shape" fill="#FFFFFF" fill-rule="nonzero"></path>
        <path d="M62.82,13.61 C61.3003446,13.6245804 59.8291063,13.0759831 58.69,12.07 L59.3,11 C60.2571861,11.9076895 61.5209952,12.4217814 62.84,12.44 C64.26,12.44 65.2,11.65 65.2,10.5 C65.2,9.43 64.68,8.84 62.51,7.92 C60.07,6.83 59,6 59,4.21 C59.0118748,3.29095588 59.4099827,2.41934135 60.0968372,1.80859262 C60.7836917,1.19784388 61.695869,0.904357206 62.61,1 C63.9011218,0.967174942 65.162214,1.39226218 66.17,2.2 L65.63,3.32 C64.7875289,2.61195382 63.7300816,2.21012383 62.63,2.18 C62.0797819,2.1067987 61.5238893,2.26555029 61.0953075,2.61827689 C60.6667257,2.9710035 60.4040066,3.48597657 60.37,4.04 C60.37,5.09 60.9,5.72 63.16,6.62 C65.42,7.52 66.54,8.62 66.54,10.3 C66.52,12.35 65,13.61 62.82,13.61 Z" id="Shape" fill="#FFFFFF" fill-rule="nonzero"></path>
        <polygon id="Shape" fill="#FFFFFF" fill-rule="nonzero" points="77.94 13.46 77.94 7.9 72 7.9 72 13.46 70.72 13.46 70.72 1.19 72 1.19 72 6.68 77.9 6.68 77.9 1.19 79.22 1.19 79.22 13.46"></polygon>
        <path d="M92.36,13.46 L91.15,10.23 L85.67,10.23 L84.48,13.46 L83.13,13.46 L87.79,1.12 L89.09,1.12 L93.75,13.46 L92.36,13.46 Z M88.42,2.82 L86.09,9 L90.73,9 L88.42,2.82 Z" id="Shape" fill="#FFFFFF" fill-rule="nonzero"></path>
        <polygon id="Shape" fill="#FFFFFF" fill-rule="nonzero" points="97.62 13.46 97.62 1.19 98.94 1.19 98.94 12.25 104.61 12.25 104.61 13.46"></polygon>
        <polygon id="Shape" fill="#FFFFFF" fill-rule="nonzero" points="108.52 13.46 108.52 1.19 109.83 1.19 109.83 12.25 115.51 12.25 115.51 13.46"></polygon>
        <path d="M130.7,13.63 C127.41,13.63 125.22,11.09 125.22,7.39 L125.22,7.27 C125.22,3.7 127.48,1.02 130.67,1.02 C131.991958,0.968507785 133.285823,1.41048899 134.3,2.26 L133.68,3.37 C132.847056,2.61307611 131.755212,2.20497711 130.63,2.23 C128.3,2.23 126.63,4.33 126.63,7.23 L126.63,7.38 C126.63,10.47 128.29,12.43 130.8,12.43 C131.752618,12.4336522 132.680097,12.1244926 133.44,11.55 L133.44,8.11 L130.38,8.11 L130.38,6.94 L134.7,6.94 L134.7,12.21 C133.569829,13.1295819 132.157023,13.631128 130.7,13.63 Z" id="Shape" fill="#FFFFFF" fill-rule="nonzero"></path>
        <path d="M144,13.65 C140.88,13.65 138.75,10.99 138.75,7.41 L138.75,7.27 C138.7,3.68 140.85,1 144,1 C147.15,1 149.25,3.66 149.25,7.24 L149.25,7.38 C149.22,11 147.07,13.65 144,13.65 Z M147.91,7.27 C147.91,4.27 146.26,2.21 144,2.21 C141.74,2.21 140.11,4.26 140.11,7.21 L140.11,7.35 C140.11,10.35 141.76,12.41 144.02,12.41 C146.28,12.41 147.91,10.41 147.91,7.41 L147.91,7.27 Z" id="Shape" fill="#FFFFFF" fill-rule="nonzero"></path>
        <polygon id="Shape" fill="#FFFFFF" fill-rule="nonzero" points="153.52 13.46 153.52 1.19 154.83 1.19 154.83 12.25 160.51 12.25 160.51 13.46"></polygon>
        <path d="M167.87,13.46 L164.42,13.46 L164.42,1.19 L167.87,1.19 C171.27,1.19 173.62,3.65 173.62,7.25 L173.62,7.38 C173.62,11 171.27,13.46 167.87,13.46 Z M172.27,7.27 C172.27,4.36 170.52,2.4 167.89,2.4 L165.73,2.4 L165.73,12.25 L167.89,12.25 C170.53,12.25 172.27,10.32 172.27,7.39 L172.27,7.27 Z" id="Shape" fill="#FFFFFF" fill-rule="nonzero"></path>
        <path d="M181.26,13.61 C179.737241,13.6251588 178.262668,13.0766461 177.12,12.07 L177.74,11 C178.693576,11.9070449 179.954065,12.4212387 181.27,12.44 C182.69,12.44 183.64,11.65 183.64,10.5 C183.64,9.43 183.11,8.84 180.94,7.92 C178.51,6.92 177.47,6.02 177.47,4.25 C177.474554,3.33075004 177.864654,2.4555991 178.545282,1.83771037 C179.22591,1.21982164 180.134593,0.915909949 181.05,1 C182.338371,0.96519357 183.596981,1.39063918 184.6,2.2 L184.06,3.32 C183.218343,2.6105684 182.160393,2.20854724 181.06,2.18 C180.509782,2.1067987 179.953889,2.26555029 179.525308,2.61827689 C179.096726,2.9710035 178.834007,3.48597657 178.8,4.04 C178.8,5.09 179.32,5.72 181.58,6.62 C183.84,7.52 184.96,8.62 184.96,10.3 C185,12.35 183.41,13.61 181.26,13.61 Z" id="Shape" fill="#FFFFFF" fill-rule="nonzero"></path>
        <polygon id="Shape" fill="#FFFFFF" fill-rule="nonzero" points="198 13.46 198 3.59 194.24 10.13 194.16 10.13 190.4 3.61 190.4 13.46 189.12 13.46 189.12 1.19 190.49 1.19 194.22 7.74 198 1.19 199.37 1.19 199.37 13.46"></polygon>
        <polygon id="Shape" fill="#FFFFFF" fill-rule="nonzero" points="204.23 13.46 204.23 1.19 205.54 1.19 205.54 13.46"></polygon>
        <polygon id="Shape" fill="#FFFFFF" fill-rule="nonzero" points="214.38 2.42 214.38 13.42 213.06 13.42 213.06 2.42 209.63 2.42 209.63 1.19 217.81 1.19 217.81 2.42"></polygon>
        <polygon id="Shape" fill="#FFFFFF" fill-rule="nonzero" points="229 13.46 229 7.9 223.09 7.9 223.09 13.46 221.78 13.46 221.78 1.19 223.09 1.19 223.09 6.68 229 6.68 229 1.19 230.31 1.19 230.31 13.46"></polygon>
        <path d="M69.12,39 L69.12,38.92 C69.0725885,35.4299242 70.4491595,32.0711709 72.9322923,29.6182282 C75.4154251,27.1652855 78.7907653,25.8299016 82.28,25.92 C86.0194716,25.7189842 89.6639896,27.1403462 92.28,29.82 L88.7,33.85 C87.0044145,32.0886282 84.6840184,31.0649241 82.24,31 C77.99,31 74.93,34.53 74.93,38.86 L74.93,38.93 C74.93,43.26 77.93,46.86 82.24,46.86 C85.13,46.86 86.89,45.71 88.88,43.86 L92.41,47.43 C89.8458468,50.4632368 86.0290486,52.1485284 82.06,52 C78.6010567,52.0550368 75.2684477,50.7010951 72.8279604,48.2492917 C70.3874731,45.7974884 69.0489626,42.4586517 69.12,39 Z" id="Shape" fill="#FFFFFF" fill-rule="nonzero"></path>
        <path d="M95,39 L95,38.92 C95.0118416,35.3971748 96.4474475,32.0287796 98.980489,29.5804867 C101.513531,27.1321938 104.928811,25.8120002 108.45,25.92 C116.23,25.92 121.82,31.73 121.82,38.92 L121.82,38.99 C121.822114,42.5172171 120.390876,45.8938868 117.854691,48.3452186 C115.318505,50.7965503 111.895104,52.1120966 108.37,51.99 C100.6,52 95,46.18 95,39 Z M116,39 L116,38.92 C116.064704,36.85225 115.292472,34.8458416 113.858144,33.3550436 C112.423815,31.8642455 110.448707,31.0151501 108.38,31 C106.3201,30.9926795 104.34689,31.8284482 102.91892,33.3130837 C101.49095,34.7977193 100.732564,36.8019436 100.82,38.86 L100.82,38.93 C100.74683,41.0044575 101.518687,43.0197931 102.958874,44.5146471 C104.399061,46.0095011 106.384257,46.8558703 108.46,46.86 C110.516431,46.8618529 112.484396,46.0236872 113.90799,44.5396753 C115.331585,43.0556633 116.087276,41.0545789 116,39 Z" id="Shape" fill="#FFFFFF" fill-rule="nonzero"></path>
        <path d="M133.8,26.14 L138.92,26.14 L149.74,51.55 L143.93,51.55 L141.63,45.89 L131,45.89 L128.69,51.55 L123,51.55 L133.8,26.14 Z M139.64,41 L136.29,32.81 L132.94,41 L139.64,41 Z" id="Shape" fill="#FFFFFF" fill-rule="nonzero"></path>
        <path d="M150.9,39 L150.9,38.92 C150.84984,35.4308529 152.224146,32.0720207 154.705713,29.6187602 C157.187281,27.1654997 160.561658,25.8298159 164.05,25.92 C167.772379,25.7335842 171.395734,27.1537935 174,29.82 L170.47,33.89 C168.778588,32.1114897 166.453297,31.0728359 164,31 C159.75,31 156.68,34.53 156.68,38.86 L156.68,38.93 C156.68,43.26 159.68,46.86 164,46.86 C166.88,46.86 168.65,45.71 170.63,43.86 L174.16,47.43 C171.604272,50.457234 167.799251,52.1422093 163.84,52 C160.380216,52.0578709 157.045946,50.7048369 154.604833,48.2524051 C152.16372,45.7999733 150.826125,42.4594792 150.9,39 Z" id="Shape" fill="#FFFFFF" fill-rule="nonzero"></path>
        <polygon id="Shape" fill="#FFFFFF" fill-rule="nonzero" points="178.62 26.32 184.17 26.32 184.17 36.32 194.41 36.32 194.41 26.32 200 26.32 200 51.55 194.45 51.55 194.45 41.42 184.17 41.42 184.17 51.55 178.62 51.55"></polygon>
        <polygon id="Shape" fill="#FFFFFF" fill-rule="nonzero" points="206 26.32 225 26.32 225 31.26 211.54 31.26 211.54 36.37 223.44 36.37 223.44 41.31 211.54 41.31 211.54 46.61 225.24 46.61 225.24 51.55 206 51.55"></polygon>
        <path d="M228.45,47.87 L231.73,43.94 C233.790397,45.8385512 236.469247,46.9257236 239.27,47 C241.54,47 242.91,46.1 242.91,44.62 L242.91,44.55 C242.91,43.14 242.04,42.42 237.83,41.34 C232.74,40.04 229.46,38.63 229.46,33.62 L229.46,33.55 C229.46,28.97 233.14,25.95 238.29,25.95 C241.69361,25.8937145 245.01045,27.0252591 247.67,29.15 L244.78,33.34 C242.897978,31.8612347 240.609236,30.9924897 238.22,30.85 C236.1,30.85 234.98,31.85 234.98,33.05 L234.98,33.12 C234.98,34.78 236.06,35.32 240.42,36.44 C245.54,37.77 248.42,39.61 248.42,44 L248.42,44.08 C248.42,49.08 244.6,51.9 239.16,51.9 C235.21527,51.9228728 231.401135,50.4876754 228.45,47.87 Z" id="Shape" fill="#FFFFFF" fill-rule="nonzero"></path>
        <polygon id="Shape" fill="#FFFFFF" fill-rule="nonzero" points="0 30.24 0 31.52 3.49 31.52 3.49 51.55 9.71 51.55 9.71 31.88 9.71 25.28 8.11 25.28"></polygon>
        <mask id="mask-2" fill="white">
            <use xlink:href="#path-1"></use>
        </mask>
        <use id="Mask" fill="#FFFFFF" fill-rule="nonzero" xlink:href="#path-1"></use>
    </g>
</svg>